<mxfile host="app.diagrams.net" agent="Mozilla/5.0 (Windows NT 10.0; Win64; x64) AppleWebKit/537.36 (KHTML, like Gecko) Chrome/138.0.0.0 Safari/537.36" version="28.0.4">
  <diagram name="PÃ¡gina-1" id="Do6CwwoS5lAHycvBRSP7">
    <mxGraphModel dx="1042" dy="527" grid="1" gridSize="10" guides="1" tooltips="1" connect="1" arrows="1" fold="1" page="1" pageScale="1" pageWidth="827" pageHeight="1169" math="0" shadow="0">
      <root>
        <mxCell id="0" />
        <mxCell id="1" parent="0" />
        <mxCell id="8XK25_7-PPXwvnAfFsZI-1" value="VPC" style="points=[[0,0],[0.25,0],[0.5,0],[0.75,0],[1,0],[1,0.25],[1,0.5],[1,0.75],[1,1],[0.75,1],[0.5,1],[0.25,1],[0,1],[0,0.75],[0,0.5],[0,0.25]];outlineConnect=0;gradientColor=none;html=1;whiteSpace=wrap;fontSize=12;fontStyle=0;container=1;pointerEvents=0;collapsible=0;recursiveResize=0;shape=mxgraph.aws4.group;grIcon=mxgraph.aws4.group_vpc2;strokeColor=#8C4FFF;fillColor=none;verticalAlign=top;align=left;spacingLeft=30;fontColor=#AAB7B8;dashed=0;" vertex="1" parent="1">
          <mxGeometry x="100" y="110" width="480" height="350" as="geometry" />
        </mxCell>
        <mxCell id="8XK25_7-PPXwvnAfFsZI-2" value="Private subnet" style="points=[[0,0],[0.25,0],[0.5,0],[0.75,0],[1,0],[1,0.25],[1,0.5],[1,0.75],[1,1],[0.75,1],[0.5,1],[0.25,1],[0,1],[0,0.75],[0,0.5],[0,0.25]];outlineConnect=0;gradientColor=none;html=1;whiteSpace=wrap;fontSize=12;fontStyle=0;container=1;pointerEvents=0;collapsible=0;recursiveResize=0;shape=mxgraph.aws4.group;grIcon=mxgraph.aws4.group_security_group;grStroke=0;strokeColor=#00A4A6;fillColor=#E6F6F7;verticalAlign=top;align=left;spacingLeft=30;fontColor=#147EBA;dashed=0;" vertex="1" parent="8XK25_7-PPXwvnAfFsZI-1">
          <mxGeometry x="20" y="110" width="130" height="130" as="geometry" />
        </mxCell>
        <mxCell id="8XK25_7-PPXwvnAfFsZI-14" value="" style="sketch=0;points=[[0,0,0],[0.25,0,0],[0.5,0,0],[0.75,0,0],[1,0,0],[0,1,0],[0.25,1,0],[0.5,1,0],[0.75,1,0],[1,1,0],[0,0.25,0],[0,0.5,0],[0,0.75,0],[1,0.25,0],[1,0.5,0],[1,0.75,0]];outlineConnect=0;fontColor=#232F3E;fillColor=#ED7100;strokeColor=#ffffff;dashed=0;verticalLabelPosition=bottom;verticalAlign=top;align=center;html=1;fontSize=12;fontStyle=0;aspect=fixed;shape=mxgraph.aws4.resourceIcon;resIcon=mxgraph.aws4.lambda;" vertex="1" parent="8XK25_7-PPXwvnAfFsZI-2">
          <mxGeometry x="26" y="36" width="78" height="78" as="geometry" />
        </mxCell>
        <mxCell id="8XK25_7-PPXwvnAfFsZI-25" style="edgeStyle=orthogonalEdgeStyle;rounded=0;orthogonalLoop=1;jettySize=auto;html=1;startArrow=classic;startFill=1;" edge="1" parent="8XK25_7-PPXwvnAfFsZI-1" source="8XK25_7-PPXwvnAfFsZI-18" target="8XK25_7-PPXwvnAfFsZI-14">
          <mxGeometry relative="1" as="geometry" />
        </mxCell>
        <mxCell id="8XK25_7-PPXwvnAfFsZI-18" value="" style="outlineConnect=0;dashed=0;verticalLabelPosition=bottom;verticalAlign=top;align=center;html=1;shape=mxgraph.aws3.vpc_nat_gateway;fillColor=#F58536;gradientColor=none;" vertex="1" parent="8XK25_7-PPXwvnAfFsZI-1">
          <mxGeometry x="240" y="30" width="60" height="60" as="geometry" />
        </mxCell>
        <mxCell id="8XK25_7-PPXwvnAfFsZI-4" value="Security group&lt;br&gt;Admin" style="fillColor=none;strokeColor=#DD3522;verticalAlign=top;fontStyle=0;fontColor=#DD3522;whiteSpace=wrap;html=1;" vertex="1" parent="8XK25_7-PPXwvnAfFsZI-1">
          <mxGeometry x="330" y="165" width="130" height="40" as="geometry" />
        </mxCell>
        <mxCell id="8XK25_7-PPXwvnAfFsZI-12" style="edgeStyle=orthogonalEdgeStyle;rounded=0;orthogonalLoop=1;jettySize=auto;html=1;entryX=0.5;entryY=1;entryDx=0;entryDy=0;" edge="1" parent="8XK25_7-PPXwvnAfFsZI-1" source="8XK25_7-PPXwvnAfFsZI-5" target="8XK25_7-PPXwvnAfFsZI-4">
          <mxGeometry relative="1" as="geometry" />
        </mxCell>
        <mxCell id="8XK25_7-PPXwvnAfFsZI-27" style="edgeStyle=orthogonalEdgeStyle;rounded=0;orthogonalLoop=1;jettySize=auto;html=1;entryX=0.5;entryY=1;entryDx=0;entryDy=0;startArrow=classic;startFill=1;" edge="1" parent="8XK25_7-PPXwvnAfFsZI-1" source="8XK25_7-PPXwvnAfFsZI-5" target="8XK25_7-PPXwvnAfFsZI-6">
          <mxGeometry relative="1" as="geometry" />
        </mxCell>
        <mxCell id="8XK25_7-PPXwvnAfFsZI-5" value="Security group&lt;br&gt;Backend" style="fillColor=none;strokeColor=#DD3522;verticalAlign=top;fontStyle=0;fontColor=#DD3522;whiteSpace=wrap;html=1;" vertex="1" parent="8XK25_7-PPXwvnAfFsZI-1">
          <mxGeometry x="180" y="270" width="130" height="40" as="geometry" />
        </mxCell>
        <mxCell id="8XK25_7-PPXwvnAfFsZI-6" value="Security group&lt;br&gt;Lambda" style="fillColor=none;strokeColor=#DD3522;verticalAlign=top;fontStyle=0;fontColor=#DD3522;whiteSpace=wrap;html=1;" vertex="1" parent="8XK25_7-PPXwvnAfFsZI-1">
          <mxGeometry x="180" y="165" width="130" height="40" as="geometry" />
        </mxCell>
        <mxCell id="8XK25_7-PPXwvnAfFsZI-26" style="edgeStyle=orthogonalEdgeStyle;rounded=0;orthogonalLoop=1;jettySize=auto;html=1;entryX=0;entryY=0.5;entryDx=0;entryDy=0;" edge="1" parent="8XK25_7-PPXwvnAfFsZI-1" source="8XK25_7-PPXwvnAfFsZI-14" target="8XK25_7-PPXwvnAfFsZI-6">
          <mxGeometry relative="1" as="geometry" />
        </mxCell>
        <mxCell id="8XK25_7-PPXwvnAfFsZI-13" value="" style="image;aspect=fixed;html=1;points=[];align=center;fontSize=12;image=img/lib/azure2/databases/Azure_Database_PostgreSQL_Server.svg;" vertex="1" parent="1">
          <mxGeometry x="148.63" y="488" width="72.75" height="97" as="geometry" />
        </mxCell>
        <mxCell id="8XK25_7-PPXwvnAfFsZI-23" style="edgeStyle=orthogonalEdgeStyle;rounded=0;orthogonalLoop=1;jettySize=auto;html=1;startArrow=classic;startFill=1;" edge="1" parent="1" source="8XK25_7-PPXwvnAfFsZI-22" target="8XK25_7-PPXwvnAfFsZI-18">
          <mxGeometry relative="1" as="geometry" />
        </mxCell>
        <mxCell id="8XK25_7-PPXwvnAfFsZI-22" value="" style="shape=image;html=1;verticalAlign=top;verticalLabelPosition=bottom;labelBackgroundColor=#ffffff;imageAspect=0;aspect=fixed;image=https://icons.diagrams.net/icon-cache1/For_Your_Interface__Free_Samples_-2968/Globe-1002.svg" vertex="1" parent="1">
          <mxGeometry x="331" width="78" height="78" as="geometry" />
        </mxCell>
        <mxCell id="8XK25_7-PPXwvnAfFsZI-24" style="edgeStyle=orthogonalEdgeStyle;rounded=0;orthogonalLoop=1;jettySize=auto;html=1;" edge="1" parent="1" source="8XK25_7-PPXwvnAfFsZI-14" target="8XK25_7-PPXwvnAfFsZI-13">
          <mxGeometry relative="1" as="geometry" />
        </mxCell>
        <mxCell id="8XK25_7-PPXwvnAfFsZI-28" style="edgeStyle=orthogonalEdgeStyle;rounded=0;orthogonalLoop=1;jettySize=auto;html=1;entryX=1.009;entryY=0.59;entryDx=0;entryDy=0;entryPerimeter=0;" edge="1" parent="1" source="8XK25_7-PPXwvnAfFsZI-5" target="8XK25_7-PPXwvnAfFsZI-13">
          <mxGeometry relative="1" as="geometry" />
        </mxCell>
      </root>
    </mxGraphModel>
  </diagram>
</mxfile>
